<?xml version="1.0" encoding="UTF-8"?>
<svg width="400" height="400" viewBox="0 0 400 400" fill="none" xmlns="http://www.w3.org/2000/svg">
    <defs>
        <!-- Paisley Pattern -->
        <pattern id="paisleyPattern" x="0" y="0" width="100" height="100" patternUnits="userSpaceOnUse">
            <path d="M25,25 C40,10 60,20 60,40 C60,60 40,70 25,55 C10,70 -10,60 -10,40 C-10,20 10,10 25,25" 
                  fill="none" 
                  stroke="#C5B358" 
                  stroke-width="0.5" 
                  opacity="0.3"/>
            <path d="M75,75 C90,60 110,70 110,90 C110,110 90,120 75,105 C60,120 40,110 40,90 C40,70 60,60 75,75" 
                  fill="none" 
                  stroke="#C5B358" 
                  stroke-width="0.5" 
                  opacity="0.3"/>
        </pattern>
        
        <!-- Mandala Element -->
        <pattern id="mandalaPattern" x="0" y="0" width="200" height="200" patternUnits="userSpaceOnUse">
            <circle cx="100" cy="100" r="80" 
                    fill="none" 
                    stroke="#C5B358" 
                    stroke-width="0.5" 
                    opacity="0.2"/>
            <circle cx="100" cy="100" r="60" 
                    fill="none" 
                    stroke="#C5B358" 
                    stroke-width="0.5" 
                    opacity="0.2"/>
            <circle cx="100" cy="100" r="40" 
                    fill="none" 
                    stroke="#C5B358" 
                    stroke-width="0.5" 
                    opacity="0.2"/>
        </pattern>
    </defs>
    
    <!-- Background Patterns -->
    <rect width="400" height="400" fill="url(#paisleyPattern)"/>
    <rect width="400" height="400" fill="url(#mandalaPattern)"/>
    
    <!-- Decorative Corners -->
    <path d="M0,0 L50,0 L50,2 L2,2 L2,50 L0,50 Z" fill="#C5B358" opacity="0.2"/>
    <path d="M400,0 L350,0 L350,2 L398,2 L398,50 L400,50 Z" fill="#C5B358" opacity="0.2"/>
    <path d="M0,400 L50,400 L50,398 L2,398 L2,350 L0,350 Z" fill="#C5B358" opacity="0.2"/>
    <path d="M400,400 L350,400 L350,398 L398,398 L398,350 L400,350 Z" fill="#C5B358" opacity="0.2"/>
</svg>
